<?xml version="1.0" encoding="iso-8859-1"?>
<!-- Generator: Adobe Illustrator 16.0.0, SVG Export Plug-In . SVG Version: 6.00 Build 0)  -->
<!DOCTYPE svg PUBLIC "-//W3C//DTD SVG 1.1//EN" "http://www.w3.org/Graphics/SVG/1.1/DTD/svg11.dtd">
<svg xmlns="http://www.w3.org/2000/svg" xmlns:xlink="http://www.w3.org/1999/xlink" version="1.1" id="Capa_1" x="0px" y="0px" width="512px" height="512px" viewBox="0 0 45.46 45.46" style="enable-background:new 0 0 45.46 45.46;" xml:space="preserve">
<g>
	<path d="M41.96,6.249h-3.05v2.704c0,1.934-1.567,3.5-3.5,3.5c-1.934,0-3.5-1.566-3.5-3.5V6.249h-5.68v2.704   c0,1.934-1.565,3.5-3.5,3.5s-3.5-1.566-3.5-3.5V6.249h-5.68v2.704c0,1.934-1.566,3.5-3.5,3.5c-1.933,0-3.5-1.566-3.5-3.5V6.249H3.5   c-0.928,0-1.818,0.368-2.475,1.024C0.369,7.93,0,8.82,0,9.749V39.65c0,1.934,1.567,3.5,3.5,3.5h38.46c1.935,0,3.5-1.566,3.5-3.5   V9.749C45.46,7.816,43.895,6.249,41.96,6.249z M38.46,17.31v5.075h-6.604V17.31H38.46z M15.169,23.95h6.778v4.812h-6.778V23.95z    M13.605,28.76H7.001v-4.812h6.605L13.605,28.76L13.605,28.76z M21.948,30.325v5.825H15.17v-5.825H21.948z M23.514,30.325h6.776   v5.825h-6.776V30.325z M23.514,28.76v-4.812h6.776v4.812H23.514z M31.855,23.95h6.604v4.812h-6.604V23.95z M30.292,17.31v5.075   h-6.778V17.31H30.292z M21.948,17.31v5.075H15.17v-5.076L21.948,17.31z M13.605,17.309v5.076H7.001v-5.076H13.605z M7.001,30.325   h6.605v5.825H7.001V30.325z M31.855,36.15v-5.825h6.604v5.825H31.855z M8.05,8.953V4.31c0-1.104,0.896-2,2-2c1.105,0,2,0.896,2,2   v4.643c0,1.104-0.895,2-2,2C8.947,10.953,8.05,10.057,8.05,8.953z M20.73,8.953V4.31c0-1.104,0.896-2,2-2s2,0.896,2,2v4.643   c0,1.104-0.896,2-2,2S20.73,10.057,20.73,8.953z M33.411,8.953V4.31c0-1.104,0.896-2,2-2s2,0.896,2,2v4.643c0,1.104-0.896,2-2,2   C34.305,10.953,33.411,10.057,33.411,8.953z" fill="#00b1dd"/>
</g>
<g>
</g>
<g>
</g>
<g>
</g>
<g>
</g>
<g>
</g>
<g>
</g>
<g>
</g>
<g>
</g>
<g>
</g>
<g>
</g>
<g>
</g>
<g>
</g>
<g>
</g>
<g>
</g>
<g>
</g>
</svg>
